<svg width="224" height="74" viewBox="0 0 224 74" fill="none" xmlns="http://www.w3.org/2000/svg">
    <path
        d="M142.297 18.4644H157.828L159.141 18.6692L160.125 19.0789L161 19.6933L161.656 20.5125L162.094 21.8438L162.203 22.8679V40.1746L161.875 41.4035L161.219 42.2227L160.562 42.7348L158.922 43.1444L159.031 43.8612L161.547 51.0297L162.75 54.5115V54.7163H154.875L154.547 54.1019L152.469 47.6503L151.047 43.3492V43.1444H150.281L150.062 43.2468L149.953 54.7163H142.297V18.4644Z"
        fill="#FEFEFE" />
    <path
        d="M29.8594 14.0609H39.2656L40.3594 14.2657L41.3438 14.8802L42.1094 15.597L42.875 17.0307L43.3125 18.5668L43.4219 18.6692L55.7812 18.7716L56.6562 19.1812L57.0938 19.6933L57.3125 20.5125V29.4219H55.7812L55.6719 20.3077L55.2344 20.2053H50.75V26.4521H49.2188V20.2053H45.8281L45.1719 20.3077L45.0625 26.4521H43.6406L43.5312 20.2053H23.5156L23.4062 20.4101V50.3128L23.5156 50.4152L31.8281 50.5176V51.8489L31.7188 51.9513L19.5781 52.0537L19.4688 52.1562L19.3594 54.4091L18.9219 55.4332L18.0469 56.0476L17.5 56.2524H16.0781L15.3125 55.9452L14.6562 55.4332L14.2188 54.6139L14.1094 53.9995V51.9513H12.9062L12.0312 51.6441L11.375 50.9273L11.1562 50.2104V20.3077L11.4844 19.4885L12.1406 18.9764L12.6875 18.7716L15.8594 18.6692L26.0312 18.5668L26.3594 17.2355L27.2344 15.597L27.8906 14.8802L28.9844 14.2657L29.8594 14.0609Z"
        fill="#FEFEFE" />
    <path
        d="M95.7031 18.4644H103.469L103.578 33.9278L104.672 33.8254L104.891 33.211L107.516 22.9703L108.609 18.6692L108.719 18.4644H116.703L115.719 22.1511L113.422 30.3436L112.219 34.6447V35.6687L114.406 44.9877L116.156 52.4634L116.594 54.3067L116.484 54.7163H108.281L108.062 54.4091L105.875 43.6564L105.109 39.8674V39.6626H103.578L103.469 54.7163H95.7031V18.4644Z"
        fill="#FEFEFE" />
    <path
        d="M62.8906 28.5002H65.7344L66.3906 28.8075L66.6094 29.4219V30.8556L66.3906 32.8013L66.0625 34.0302L65.4062 34.9519L62.0156 38.1265L62.2344 39.0481L63.875 44.2709L64.0938 44.9877H64.3125L65.0781 44.2709L65.7344 44.066L66.2812 44.5781L66.1719 45.2949L64.8594 46.5238L64.75 47.0358L65.625 50.0056V50.5177L64.4219 51.7465L62.6719 53.385L62.125 53.6923L61.5781 53.5899L61.1406 53.0778L59.1719 48.2647L57.9688 45.2949L57.2031 43.4516L57.0938 42.9396L56.6562 43.1444L52.7188 46.831H52.5L52.2812 47.2406L51.1875 48.2647L50.5312 48.7767L49.7656 49.596L49.3281 49.8008L49.1094 50.2104L48.0156 51.1321L47.25 51.6441L47.3594 52.4634L48.0156 54.6139L47.6875 55.1259L47.25 55.638L46.375 56.3548L44.2969 58.3006L43.6406 58.403L43.0938 57.9933L41.3438 53.7947L40.7969 52.5658L36.8594 51.1321L34.7812 50.3128L34.5625 50.0056L34.6719 49.4936L35.4375 48.6743L38.2812 46.0118L39.0469 45.9094L41.4531 46.6262L41.8906 46.4214L43.0938 45.0901L48.7812 39.765H49L49.2188 39.3553L50.3125 38.3313L51.0781 37.7168L51.1875 37.4096L50.0938 37.1024L45.5 35.4639L40.3594 33.6206L39.7031 33.2109V32.5965L40.4688 31.7773L41.2344 31.0604L41.3438 30.8556H41.5625V30.6508L42.4375 29.9339L43.0938 29.4219L44.1875 29.5243L48.0156 30.5484H48.5625L49.5469 29.6267L50.2031 29.5243L50.75 30.0363V30.5484L50.3125 30.958V31.1628L52.3906 31.7773L55.7812 32.6989H56.4375L60.2656 29.1147L61.4688 28.7051L62.8906 28.5002Z"
        fill="#FEFEFE" />
    <path
        d="M180.797 18.4644H192.5L193.266 22.1511L193.703 24.5064V25.1208L184.625 25.2232L184.297 25.3257L184.188 25.5305V32.8013L184.516 33.3134L185.281 33.5182L190.969 33.6206L192.062 33.8254L193.047 34.3374L193.484 34.8495L193.812 35.5663L193.922 36.1808V50.6201L193.594 51.9514L192.938 53.1802L192.062 53.8971L190.75 54.4091L189.766 54.6139L188.672 54.7163H178.609L178.391 54.5115L177.188 48.4695V47.9575L186.156 47.8551L186.266 47.4455V40.1746L186.156 39.765L185.719 39.5602L179.594 39.4578L178.609 39.253L177.625 38.6385L176.969 37.7169L176.641 36.7952L176.531 35.5663V23.1751L176.75 21.3318L177.516 19.8981L178.281 19.2837L179.484 18.6692L180.797 18.4644Z"
        fill="white" />
    <path
        d="M79.1875 18.4644H90.8906L91.875 23.2775L92.0938 24.5064V25.1208L83.0156 25.2232L82.6875 25.3257L82.5781 25.5305V32.9037L83.125 33.4158L83.6719 33.5182L89.4688 33.6206L90.4531 33.8254L91.4375 34.3374L91.875 34.8495L92.2031 35.6687L92.3125 36.1808V50.5177L91.9844 51.9514L91.3281 53.1802L90.4531 53.8971L89.1406 54.4091L88.1562 54.6139L87.0625 54.7163H77L76.7812 54.4091L75.5781 48.4695V47.9575L84.4375 47.8551L84.6562 47.5479V40.0722L84.5469 39.765L84.1094 39.5602L77.9844 39.4578L77 39.253L76.0156 38.6385L75.3594 37.7169L75.0312 36.7952L74.9219 35.1567V23.3799L75.0312 21.8438L75.3594 20.8198L76.0156 19.7957L77 19.0789L77.875 18.6692L79.1875 18.4644Z"
        fill="#FEFEFE" />
    <path
        d="M117.031 18.4644H125.016L125.344 19.7957L126.875 27.3738L128.188 33.8254L128.406 35.2591H128.625L128.734 34.4398L130.703 24.916L132.016 18.4644H140.109L139.234 21.639L138.25 25.1208L136.719 30.7532L134.641 38.3313L133 44.2709L132.672 45.9094L132.562 54.7163H124.578L124.469 54.6139L124.359 45.3973L122.609 38.8433L120.75 32.1869L119.219 26.5545L117.469 20.2053L117.031 18.4644Z"
        fill="#FEFEFE" />
    <path
        d="M197.312 18.4644H212.297L212.516 19.1813L213.609 24.8136V25.1208H205.188V33.6206L205.297 33.723H211.531L211.641 39.9698L211.531 40.0722H205.188V47.9575H213.281L213.172 48.8792L212.078 54.5115L211.969 54.7163H197.312V18.4644Z"
        fill="#FEFEFE" />
    <path d="M165.594 18.4644H173.25V54.7163H165.594V18.4644Z" fill="#FEFEFE" />
    <path
        d="M13.7812 20.1029H15.4219L16.625 20.2053V50.3128L16.5156 50.4152L13.0156 50.5177L12.6875 50.3128L12.5781 48.7767V26.2473L12.6875 20.3077L12.7969 20.2053L13.7812 20.1029Z"
        fill="#05203C" />
    <path
        d="M63 29.934H65.0781V31.2652L64.75 33.211L64.4219 33.8254L63.4375 34.8495L61.9062 36.2832L61.0312 37L59.1719 38.7409L58.2969 39.4578L56.875 40.7891L56.1094 41.6083L47.0312 50.1081H46.5938L46.2656 48.9816L46.375 48.3671L48.6719 46.2166L49 45.7046L48.7812 45.1925L48.6719 44.9877H48.0156L47.1406 45.7046L45.0625 47.6503L43.5312 47.2407L43.3125 46.9334L50.75 39.9698L51.2969 39.3554L52.1719 38.6385L53.0469 37.8193L53.9219 37.1024L57.0938 34.1326L57.8594 33.3134L60.7031 30.6508L61.3594 30.2412L63 29.934Z"
        fill="#05203C" />
    <path
        d="M18.2656 20.2053H21.7656L21.875 20.4101V50.3129L21.7656 50.4153H18.375L18.1562 50.3129V20.3077L18.2656 20.2053Z"
        fill="#05203C" />
    <path
        d="M150.062 24.7112H154L154.547 24.916L154.656 25.8377V36.5903L154.438 37.2048L154.219 37.3072H150.062L149.953 37.2048V24.8136L150.062 24.7112Z"
        fill="#05203C" />
    <path
        d="M29.8594 15.4946H39.375L40.25 15.8018L40.9062 16.5187L41.4531 17.5428L41.6719 18.1572V18.6692L40.1406 18.7716H28L27.5625 18.5668L28 17.2355L28.6562 16.2115L29.4219 15.597L29.8594 15.4946Z"
        fill="#05203C" />
    <path
        d="M60.4844 39.4578H60.8125L62.2344 44.0661L62.8906 46.319L62.6719 46.7286L62.125 47.2407L62.2344 47.9575L62.3438 48.0599H63.4375L63.7656 48.9816L63.9844 49.6984L63.875 50.2105L62.4531 51.5417L62.0156 51.4393L60.8125 48.3671L59.1719 44.3733L58.1875 41.9155L58.4062 41.5059L58.7344 41.0963H58.9531V40.8915H59.1719L59.3906 40.4818L60.0469 39.9698L60.4844 39.4578Z"
        fill="#05203C" />
    <path
        d="M43.4219 30.958L44.1875 31.0604L46.9219 31.7773V32.1869L46.4844 32.8013L46.5938 33.3134L46.9219 33.5182L47.5781 33.4158L48.3438 32.8013L48.6719 32.3917L49.5469 32.4941L54.25 33.723L54.9062 33.9278L54.25 34.6446L52.3906 36.3856L49.2188 35.2591L44.9531 33.723L42 32.6989V32.2893L43.4219 30.958Z"
        fill="#05203C" />
    <path
        d="M38.9375 47.4455L41.2344 48.0599L43.6406 48.7768L43.4219 49.1864H43.2031L42.9844 49.596L41.8906 50.6201L41.2344 51.1321L38.7188 50.3129L36.9688 49.6984L36.8594 49.3912L37.1875 48.9816H37.4062L37.625 48.572L38.1719 48.1623L38.7188 47.5479L38.9375 47.4455Z"
        fill="#05203C" />
    <path
        d="M44.5156 50.108L44.9531 50.2104L46.2656 53.8971L46.1562 54.6139L44.5156 56.15L44.0781 56.3548L43.6406 55.5356L42.4375 52.4634L42.5469 51.9514L43.4219 51.2345L44.2969 50.4153L44.5156 50.108Z"
        fill="#05203C" />
    <path
        d="M55.7812 47.2407H57.3125V50.0056L57.0938 50.9273L56.4375 51.6441L56 51.849L55.2344 51.9514H51.625L51.4062 51.849V50.5177L55.4531 50.4153L55.6719 50.3129L55.7812 47.2407Z"
        fill="#FEFEFE" />
    <path
        d="M15.75 51.9514H16.7344L17.8281 52.0538L17.9375 52.1562V53.7947L17.7188 54.6139L17.0625 54.9211H16.2969L15.75 54.5115L15.6406 54.3067V52.0538L15.75 51.9514Z"
        fill="#05203C" />
    <path
        d="M161.766 59.9391H163.406L163.844 60.1439L164.062 60.4511V61.3728L163.406 61.8848L162.969 61.9872H161.875L161.547 61.68V60.0415L161.766 59.9391Z"
        fill="#FEFEFE" />
    <path
        d="M131.906 59.9391H133.219L133.875 60.4511L133.984 60.6559V61.2704L133.438 61.7824L132.891 61.9872L131.906 61.8848L131.25 61.3728L131.141 60.7583L131.469 60.2463L131.906 59.9391Z"
        fill="#FEFEFE" />
    <path
        d="M197.422 59.9391H199.062L199.609 60.3487L199.719 60.5535V61.3728L199.062 61.8848L198.625 61.9872H197.531L197.312 61.8848L197.203 61.5776V60.3487L197.422 59.9391Z"
        fill="#FEFEFE" />
    <path
        d="M186.703 59.9391H187.906L188.562 60.4511L188.672 61.168L188.453 61.5776L187.688 61.9872H186.922L186.047 61.5776L185.828 61.0656L185.938 60.4511L186.484 60.0415L186.703 59.9391Z"
        fill="#FEFEFE" />
    <path
        d="M126.109 59.9391H127.859L128.078 60.0415L128.297 61.168V61.68L127.969 61.8848L127.203 61.9872H126.219L126 61.8848V60.0415L126.109 59.9391Z"
        fill="#FEFEFE" />
    <path
        d="M170.625 59.9391H172.484L172.703 60.1439L172.922 61.5776L172.812 61.7824L171.938 61.9872H170.734L170.625 61.8848V59.9391Z"
        fill="#FEFEFE" />
    <path
        d="M106.203 59.9391L106.75 60.0415L107.734 60.8607V61.0656L108.172 61.2704V60.1439L108.281 59.9391L108.719 60.0415V61.8848L108.281 61.9872L107.406 61.2704L106.641 60.6559V61.8848L106.203 61.9872L106.094 61.8848V60.8607L106.203 59.9391Z"
        fill="#FEFEFE" />
    <path
        d="M121.625 59.9391L122.172 60.0415L123.047 61.4752L123.156 61.9872L122.609 61.8848L122.391 61.68H121.188L120.969 61.9872H120.531L120.75 61.3728L121.516 60.0415L121.625 59.9391Z"
        fill="#FEFEFE" />
    <path
        d="M191.625 59.9391L192.172 60.0415L193.266 60.9632L193.703 61.2704V59.9391L194.141 60.0415V61.9872L193.594 61.8848L192.719 61.168L192.172 60.6559L192.062 61.9872H191.625V59.9391Z"
        fill="#FEFEFE" />
    <path
        d="M155.969 59.9391L156.516 60.0415L157.391 60.7583L157.938 61.2704L158.047 59.9391L158.484 60.0415V61.9872L157.938 61.8848L157.062 61.168L156.406 60.6559V61.9872H155.969V59.9391Z"
        fill="#FEFEFE" />
    <path
        d="M151.594 59.9391L152.031 60.0415L152.469 60.5535L153.125 61.8848L152.797 61.9872L152.359 61.68H151.156L150.719 61.9872H150.5L150.609 61.4752L151.375 60.1439L151.594 59.9391Z"
        fill="#FEFEFE" />
    <path
        d="M112.547 59.9391H113.75L114.078 60.1439L113.969 60.4511L113.75 60.3487H112.766L112.328 60.5535L112.219 61.168L112.547 61.4752L113.531 61.5776L113.422 61.2704L113.094 60.9632L113.203 60.8607H113.75L114.188 61.0656L114.297 61.3728L113.969 61.8848L113.641 61.9872H112.547L112 61.68L111.672 61.2704V60.5535L112.219 60.0415L112.547 59.9391Z"
        fill="#FEFEFE" />
    <path d="M175.875 59.9391H177.953L177.844 60.2463H176.422V61.5776H177.844V61.9872H175.984L175.875 61.8848V59.9391Z"
        fill="#FEFEFE" />
    <path
        d="M186.812 60.2463H187.688L188.125 60.6559V61.2703L187.797 61.5776L187.141 61.68L186.594 61.4752L186.375 61.2703V60.6559L186.812 60.2463Z"
        fill="#05203C" />
    <path
        d="M142.188 59.9391H144.047V60.2463H142.625L142.734 61.5776H144.047V61.9872H142.188L142.078 61.8848V60.0415L142.188 59.9391Z"
        fill="#FEFEFE" />
    <path
        d="M132.125 60.2463H133L133.438 60.5535V61.2703L132.781 61.68L132.016 61.5776L131.688 61.2703V60.6559L132.125 60.2463Z"
        fill="#05203C" />
    <path
        d="M97.125 59.8367L97.6719 60.0415L98.3281 61.168H98.5469L99.2031 60.0415L99.6406 59.9391L99.5312 60.4511L98.875 61.68L98.6562 61.9872L98.1094 61.8848L97.5625 61.0655L97.125 60.1439V59.8367Z"
        fill="#FEFEFE" />
    <path
        d="M136.719 59.9391L137.156 60.0415L137.922 61.2704L138.141 61.3728L138.469 60.4511L138.797 59.9391H139.234L139.016 60.5535L138.359 61.7824L138.141 61.9872L137.594 61.8848L136.828 60.4511L136.719 59.9391Z"
        fill="#FEFEFE" />
    <path
        d="M197.969 60.2463H198.734L199.172 60.4511L199.281 61.1679L198.844 61.5776H197.859L197.641 61.2703V60.5535L197.969 60.2463Z"
        fill="#05203C" />
    <path
        d="M162.422 60.2463L163.406 60.3487L163.625 60.6559L163.516 61.3727L163.188 61.5776H162.203L161.984 61.2703V60.5535L162.094 60.3487L162.422 60.2463Z"
        fill="#05203C" />
    <path d="M171.172 60.1439H172.266L172.375 60.3487V61.5776L172.266 61.68H171.172V60.1439Z" fill="#05203C" />
    <path
        d="M126.656 60.2463H127.641L127.75 60.3487L127.859 61.4752L127.422 61.68H126.766L126.547 61.5776V60.3487L126.656 60.2463Z"
        fill="#05203C" />
    <path
        d="M180.906 59.8367L181.453 60.1439L181.562 60.4511L182.219 60.7583L182.438 60.2463L182.766 59.9391L183.094 60.0415L182.328 61.0655L182.109 61.9872H181.781L181.562 61.0655L180.797 59.9391L180.906 59.8367Z"
        fill="#FEFEFE" />
    <path
        d="M88.9219 59.9391H89.25L89.3594 61.168L89.4688 61.4752L90.7812 61.5776V61.8848H88.9219L88.8125 61.7824L88.9219 59.9391Z"
        fill="#FEFEFE" />
    <path d="M102.594 59.9391H103.031V61.8848H102.594V59.9391Z" fill="#FEFEFE" />
    <path d="M93.8438 59.9391H94.1719V61.9872L93.7344 61.7824L93.8438 59.9391Z" fill="#FEFEFE" />
    <path d="M151.703 60.4511H151.922L152.141 61.168L152.031 61.2704H151.375L151.594 60.6559L151.703 60.4511Z"
        fill="#05203C" />
    <path d="M121.734 60.4511L122.062 60.6559L122.172 61.168L122.062 61.2704H121.516L121.625 60.5535L121.734 60.4511Z"
        fill="#05203C" />
    <path
        d="M176.75 60.5535L177.297 60.6559V60.8607H177.516L177.625 60.6559H177.844L177.734 60.9632L176.859 61.0656L176.641 60.7583L176.75 60.5535Z"
        fill="#FEFEFE" />
    <path
        d="M142.809 60.8L143.356 60.9024V61.1072H143.575L143.684 60.9024H143.903L143.794 61.2096L142.919 61.312L142.7 61.0048L142.809 60.8Z"
        fill="#FEFEFE" />
</svg>